<?xml version="1.0" encoding="UTF-8" standalone="no"?><!DOCTYPE svg PUBLIC "-//W3C//DTD SVG 1.1//EN" "http://www.w3.org/Graphics/SVG/1.1/DTD/svg11.dtd"><svg width="100%" height="100%" viewBox="0 0 2975 434" version="1.1" xmlns="http://www.w3.org/2000/svg" xmlns:xlink="http://www.w3.org/1999/xlink" xml:space="preserve" xmlns:serif="http://www.serif.com/" style="fill-rule:evenodd;clip-rule:evenodd;stroke-linejoin:round;stroke-miterlimit:2;"><g><path d="M432.883,370.925c-14.762,-0 -27.862,-3.267 -39.304,-9.784c-11.446,-6.516 -20.362,-15.616 -26.758,-27.308c-6.4,-11.684 -9.596,-24.908 -9.596,-39.675l0,-119.2l50.188,-0l-0,111.821c-0,12.545 3.633,22.454 10.891,29.708c7.254,7.262 17.038,10.887 29.338,10.887c8.362,0 15.929,-1.716 22.696,-5.166c6.762,-3.442 12.366,-8.121 16.795,-14.025l0,-133.225l50.559,-0l-0,192.275l-50.559,-0l0,-15.504c-14.762,12.8 -32.845,19.196 -54.25,19.196Z" style="fill:#ed0180;fill-rule:nonzero;"/><path d="M577.175,367.233l-0,-258.338l50.558,-8.487l0,266.825l-50.558,-0Z" style="fill:#ed0180;fill-rule:nonzero;"/><path d="M667.217,367.233l-0,-258.338l50.558,-8.487l0,155.375l83.404,-80.825l57.2,-0l-91.15,87.837l96.692,104.438l-64.958,-0l-81.188,-87.467l0,87.467l-50.558,-0Z" style="fill:#ed0180;fill-rule:nonzero;"/><path d="M1041.79,370.183c-21.159,-0 -37.217,-4.85 -48.159,-14.579c-10.95,-9.709 -16.425,-23.804 -16.425,-42.25l0,-96.321l-39.487,-0l-0,-42.075l39.487,-0l0,-49.083l50.192,-11.442l0,60.525l55.358,-0l0,42.075l-55.358,-0l0,85.621c0,8.854 2.029,15.191 6.088,19c4.062,3.816 10.887,5.72 20.487,5.72c5.167,0 9.775,-0.304 13.838,-0.924c4.058,-0.609 8.545,-1.659 13.47,-3.134l0,41.329c-5.166,1.73 -11.566,3.08 -19.196,4.063c-7.624,0.979 -14.391,1.475 -20.295,1.475Z" style="fill:#ed0180;fill-rule:nonzero;"/><path d="M1199.38,370.925c-19.192,-0 -36.6,-4.488 -52.221,-13.475c-15.625,-8.975 -27.987,-20.905 -37.091,-35.792c-9.104,-14.884 -13.65,-31.679 -13.65,-50.375c-0,-18.454 4.366,-35.246 13.104,-50.383c8.725,-15.125 20.596,-27.117 35.608,-35.98c15.004,-8.854 31.613,-13.283 49.821,-13.283c18.454,0 34.875,4.492 49.267,13.471c14.391,8.983 25.708,21.221 33.95,36.716c8.241,15.5 12.362,33.217 12.362,53.146l0,13.284l-142.45,-0c2.217,7.633 5.908,14.521 11.075,20.671c5.163,6.149 11.438,10.887 18.821,14.204c7.383,3.321 15.375,4.987 23.983,4.987c8.363,0 16.238,-1.296 23.621,-3.875c7.379,-2.583 13.659,-6.333 18.821,-11.258l33.217,30.262c-11.809,9.596 -23.934,16.604 -36.35,21.038c-12.425,4.425 -26.392,6.642 -41.888,6.642Zm-52.033,-118.838l93.733,-0c-1.971,-7.621 -5.229,-14.329 -9.779,-20.108c-4.558,-5.779 -10.029,-10.271 -16.425,-13.471c-6.4,-3.196 -13.279,-4.804 -20.662,-4.804c-7.875,-0 -15.013,1.541 -21.409,4.616c-6.4,3.08 -11.75,7.509 -16.054,13.288c-4.304,5.783 -7.442,12.612 -9.404,20.479Z" style="fill:#ed0180;fill-rule:nonzero;"/><path d="M1286.48,367.233l73.804,-97.8l-71.958,-94.475l58.679,-0l42.438,57.2l42.071,-57.2l56.837,-0l-70.858,93.737l74.912,98.538l-58.675,-0l-45.396,-61.263l-45.02,61.263l-56.834,-0Z" style="fill:#ed0180;fill-rule:nonzero;"/><path d="M1599.06,370.183c-21.163,-0 -37.217,-4.85 -48.163,-14.579c-10.946,-9.709 -16.425,-23.804 -16.425,-42.25l0,-96.321l-39.488,-0l0,-42.075l39.488,-0l0,-49.083l50.196,-11.442l-0,60.525l55.354,-0l0,42.075l-55.354,-0l-0,85.621c-0,8.854 2.025,15.191 6.083,19c4.063,3.816 10.888,5.72 20.484,5.72c5.17,0 9.779,-0.304 13.841,-0.924c4.059,-0.609 8.546,-1.659 13.471,-3.134l0,41.329c-5.167,1.73 -11.567,3.08 -19.196,4.063c-7.625,0.979 -14.391,1.475 -20.291,1.475Z" style="fill:#ed0180;fill-rule:nonzero;"/><path d="M1810.52,370.925c-17.225,-0 -33.4,-2.28 -48.529,-6.825c-15.134,-4.555 -28.238,-11.009 -39.304,-19.38l25.095,-33.95c11.071,7.38 21.709,12.917 31.921,16.604c10.209,3.692 20.359,5.538 30.446,5.538c11.317,0 20.358,-1.904 27.125,-5.721c6.762,-3.812 10.146,-8.791 10.146,-14.95c-0,-4.916 -1.909,-8.854 -5.717,-11.804c-3.821,-2.954 -9.908,-5.042 -18.267,-6.279l-36.899,-5.533c-18.955,-2.951 -33.405,-9.163 -43.363,-18.634c-9.971,-9.471 -14.95,-21.966 -14.95,-37.462c0,-12.546 3.254,-23.371 9.775,-32.475c6.521,-9.096 15.808,-16.109 27.867,-21.034c12.054,-4.92 26.075,-7.383 42.07,-7.383c14.263,0 28.101,1.971 41.513,5.9c13.412,3.942 26.021,9.967 37.833,18.083l-24.358,32.85c-10.588,-6.646 -20.733,-11.437 -30.446,-14.391c-9.725,-2.955 -19.375,-4.43 -28.971,-4.43c-9.108,0 -16.425,1.725 -21.958,5.167c-5.537,3.45 -8.304,7.996 -8.304,13.654c-0,5.163 1.966,9.225 5.908,12.179c3.929,2.951 10.571,5.167 19.929,6.642l36.9,5.167c19.196,2.712 33.825,8.858 43.917,18.454c10.088,9.596 15.133,21.775 15.133,36.533c0,12.309 -3.687,23.196 -11.07,32.663c-7.384,9.471 -17.413,16.979 -30.08,22.508c-12.67,5.538 -27.125,8.309 -43.362,8.309Z" style="fill:#ed0180;fill-rule:nonzero;"/><path d="M2016.08,370.925c-19.192,-0 -36.6,-4.488 -52.221,-13.475c-15.625,-8.975 -27.987,-20.905 -37.092,-35.792c-9.104,-14.884 -13.65,-31.679 -13.65,-50.375c0,-18.454 4.367,-35.246 13.105,-50.383c8.725,-15.125 20.596,-27.117 35.608,-35.98c15.004,-8.854 31.613,-13.283 49.821,-13.283c18.454,0 34.875,4.492 49.266,13.471c14.392,8.983 25.713,21.221 33.95,36.716c8.242,15.5 12.363,33.217 12.363,53.146l0,13.284l-142.45,-0c2.217,7.633 5.908,14.521 11.075,20.671c5.163,6.149 11.437,10.887 18.821,14.204c7.383,3.321 15.375,4.987 23.983,4.987c8.363,0 16.238,-1.296 23.621,-3.875c7.379,-2.583 13.658,-6.333 18.821,-11.258l33.217,30.262c-11.809,9.596 -23.934,16.604 -36.351,21.038c-12.425,4.425 -26.391,6.642 -41.887,6.642Zm-52.033,-118.838l93.733,-0c-1.971,-7.621 -5.229,-14.329 -9.779,-20.108c-4.558,-5.779 -10.029,-10.271 -16.425,-13.471c-6.4,-3.196 -13.279,-4.804 -20.663,-4.804c-7.879,-0 -15.012,1.541 -21.408,4.616c-6.4,3.08 -11.75,7.509 -16.054,13.288c-4.304,5.783 -7.442,12.612 -9.404,20.479Z" style="fill:#ed0180;fill-rule:nonzero;"/><path d="M2137.86,367.233l0,-192.275l50.929,-0l0,21.404c5.905,-8.362 13.221,-14.762 21.959,-19.187c8.729,-4.434 18.508,-6.642 29.341,-6.642c9.588,0.242 16.601,1.6 21.034,4.054l-0,44.658c-3.938,-1.72 -8.063,-3.075 -12.367,-4.062c-4.304,-0.979 -8.796,-1.475 -13.471,-1.475c-9.841,-0 -18.816,2.529 -26.937,7.571c-8.117,5.037 -14.646,12.116 -19.559,21.216l0,124.738l-50.929,-0Z" style="fill:#ed0180;fill-rule:nonzero;"/><path d="M2356.7,367.233l-82.296,-192.275l54.988,-0l52.4,128.058l52.783,-128.058l53.508,-0l-81.929,192.275l-49.454,-0Z" style="fill:#ed0180;fill-rule:nonzero;"/><path d="M2533.47,152.079c-7.875,-0 -14.642,-2.825 -20.296,-8.488c-5.663,-5.662 -8.488,-12.546 -8.488,-20.671c0,-7.866 2.825,-14.575 8.488,-20.112c5.654,-5.534 12.421,-8.3 20.296,-8.3c8.116,-0 14.95,2.766 20.483,8.3c5.538,5.537 8.304,12.246 8.304,20.112c0,8.125 -2.766,15.009 -8.304,20.671c-5.533,5.663 -12.367,8.488 -20.483,8.488Zm-25.092,22.879l50.558,-0l0,192.275l-50.558,-0l0,-192.275Z" style="fill:#ed0180;fill-rule:nonzero;"/><path d="M2689.94,370.925c-18.7,-0 -35.617,-4.367 -50.742,-13.1c-15.133,-8.734 -27.192,-20.667 -36.167,-35.801c-8.987,-15.133 -13.47,-32.166 -13.47,-51.112c-0,-18.696 4.429,-35.554 13.283,-50.558c8.858,-15.004 20.912,-26.942 36.167,-35.8c15.254,-8.854 32.229,-13.288 50.929,-13.288c15.5,0 30.204,2.954 44.1,8.858c13.896,5.909 25.775,14.392 35.616,25.463l-30.633,32.85c-7.138,-7.875 -14.575,-13.658 -22.329,-17.35c-7.75,-3.692 -16.175,-5.537 -25.279,-5.537c-9.842,-0 -18.696,2.404 -26.567,7.195c-7.883,4.805 -14.029,11.388 -18.454,19.75c-4.429,8.367 -6.642,17.959 -6.642,28.788c0,10.329 2.329,19.741 7.013,28.229c4.67,8.492 10.941,15.196 18.816,20.113c7.871,4.925 16.854,7.383 26.942,7.383c8.612,-0 16.667,-1.846 24.171,-5.538c7.504,-3.691 14.7,-9.229 21.587,-16.608l30.271,31.742c-10.1,10.825 -21.904,19.254 -35.433,25.279c-13.533,6.025 -27.925,9.042 -43.179,9.042Z" style="fill:#ed0180;fill-rule:nonzero;"/><path d="M2883.32,370.925c-19.188,-0 -36.596,-4.488 -52.221,-13.475c-15.625,-8.975 -27.987,-20.905 -37.092,-35.792c-9.1,-14.884 -13.65,-31.679 -13.65,-50.375c0,-18.454 4.363,-35.246 13.1,-50.383c8.725,-15.125 20.6,-27.117 35.613,-35.98c15.004,-8.854 31.612,-13.283 49.825,-13.283c18.446,0 34.871,4.492 49.262,13.471c14.392,8.983 25.709,21.221 33.955,36.716c8.237,15.5 12.362,33.217 12.362,53.146l-0,13.284l-142.454,-0c2.217,7.633 5.904,14.521 11.075,20.671c5.162,6.149 11.437,10.887 18.821,14.204c7.383,3.321 15.37,4.987 23.987,4.987c8.359,0 16.238,-1.296 23.621,-3.875c7.375,-2.583 13.654,-6.333 18.817,-11.258l33.216,30.262c-11.804,9.596 -23.929,16.604 -36.35,21.038c-12.425,4.425 -26.391,6.642 -41.887,6.642Zm-52.034,-118.838l93.734,-0c-1.967,-7.621 -5.229,-14.329 -9.779,-20.108c-4.559,-5.779 -10.029,-10.271 -16.425,-13.471c-6.4,-3.196 -13.279,-4.804 -20.663,-4.804c-7.875,-0 -15.012,1.541 -21.404,4.616c-6.4,3.08 -11.75,7.509 -16.058,13.288c-4.305,5.783 -7.442,12.612 -9.405,20.479Z" style="fill:#ed0180;fill-rule:nonzero;"/><path d="M271.742,175.112c6.116,4.646 11.987,8.721 17.433,13.308c26.367,22.23 33.392,51.805 30.496,84.392c-4.679,52.704 -40.071,80.425 -85.221,92.083c-19.021,4.913 -38.408,6.8 -57.987,6.867c-27.646,0.092 -55.296,0.158 -82.942,-0.092c-5.867,-0.05 -10.158,1.388 -14.425,5.725c-16.713,16.988 -33.958,33.45 -50.825,50.288c-5.4,5.392 -11.35,8.042 -18.613,5.042c-7.266,-2.996 -9.662,-9.071 -9.658,-16.709c0.071,-132.533 0.046,-265.066 0.067,-397.596c0.004,-12.725 5.612,-18.341 18.287,-18.346c53.863,-0.008 107.729,-0.241 161.592,0.163c27.021,0.2 52.792,5.929 76.221,20.4c56.308,34.779 55.996,111.45 20.704,148.892c-1.625,1.72 -3.204,3.487 -5.129,5.583Z" style="fill:#fdba11;fill-rule:nonzero;"/><path d="M144.071,34.454c-55.05,-0 -99.675,37.15 -99.675,82.979c-0,24.25 12.496,46.067 32.417,61.237l-0,44l45.075,-24.325c7.133,1.35 14.558,2.067 22.183,2.067c55.046,0 99.671,-37.15 99.671,-82.979c-0,-45.829 -44.625,-82.979 -99.671,-82.979Zm-47.1,89.995c-6.679,0 -12.096,-5.416 -12.096,-12.095c0,-6.684 5.417,-12.096 12.096,-12.096c6.683,-0 12.096,5.412 12.096,12.096c-0,6.679 -5.413,12.095 -12.096,12.095Zm47.421,0c-6.679,0 -12.096,-5.416 -12.096,-12.095c-0,-6.684 5.417,-12.096 12.096,-12.096c6.683,-0 12.096,5.412 12.096,12.096c-0,6.679 -5.413,12.095 -12.096,12.095Zm47.416,0c-6.679,0 -12.095,-5.416 -12.095,-12.095c-0,-6.684 5.416,-12.096 12.095,-12.096c6.684,-0 12.096,5.412 12.096,12.096c0,6.679 -5.412,12.095 -12.096,12.095Z" style="fill:#fff;fill-rule:nonzero;"/></g></svg>